# xmcd
#
# Track frame offsets:
#   150
#   20127
#   45034
#   66134
#   90837
#   108385
#   133151
#   154420
#   185520
#   212447
#   234862
#   254026
#   272703
#
# Disc length: 3991 seconds
#
# Revision: 0
# Processed by: cddbd v1.5.1PL0 Copyright (c) Steve Scherf et al.
# Submitted via: GXTranscoder 2.0.1939
#
DISCID=ad0f950d
DTITLE=musique Tahitienne - Jeanne pêche
DYEAR=1900
DGENRE=UnClassifiable
TTITLE0=jeanne pêche 1
TTITLE1=jeanne pêche 2
TTITLE2=jeanne pêche 3
TTITLE3=jeanne pêche 4
TTITLE4=jeanne pêche 5
TTITLE5=jeanne pêche 6
TTITLE6=jeanne pêche 7
TTITLE7=jeanne pêche 8
TTITLE8=jeanne pêche 9
TTITLE9=Jeanne pêche 10
TTITLE10=jeanne pêche 11
TTITLE11=jeanne pêche 12
TTITLE12=jaenne pêche 13
EXTD=
EXTT0=
EXTT1=
EXTT2=
EXTT3=
EXTT4=
EXTT5=
EXTT6=
EXTT7=
EXTT8=
EXTT9=
EXTT10=
EXTT11=
EXTT12=
PLAYORDER=
